/* XPM */
static char *rdh1684720407[] = {
/* columns rows colors chars-per-pixel */
"64 64 68 1 ",
"  c #8A7D77",
". c #867A7A",
"X c #8C7E7D",
"o c #8E817E",
"O c #90817E",
"+ c #8F8382",
"@ c #928684",
"# c #958987",
"$ c #988B87",
"% c #968A89",
"& c #9A8D8C",
"* c #9D918E",
"= c #9A8E90",
"- c #9D9292",
"; c #A1928E",
": c #A29694",
"> c #A59996",
", c #A89B96",
"< c #A29699",
"1 c #A69A99",
"2 c #AA9D9C",
"3 c #ADA19E",
"4 c #B1A39D",
"5 c #AB9FA1",
"6 c #AEA2A2",
"7 c #B2A6A4",
"8 c #B4A9A5",
"9 c #B9ABA6",
"0 c #B2A6A8",
"q c #B6ABAA",
"w c #BAAEAC",
"e c #BAB0A7",
"r c #BDB1AE",
"t c #BAAEB0",
"y c #BEB2B1",
"u c #C1B4AF",
"i c #C2B8AF",
"p c #C2B5B4",
"a c #C5B9B5",
"s c #C9BCB6",
"d c #C3B7B9",
"f c #C6BAB9",
"g c #C9BDBC",
"h c #CCC1BD",
"j c #D1C5BE",
"k c #CBBEC1",
"l c #CEC2C1",
"z c #D2C6C5",
"x c #D4C9C6",
"c c #DBCDC6",
"v c #D3C6C9",
"b c #D6CACA",
"n c #D9CECD",
"m c #DCD1CE",
"M c #DACFD1",
"N c #DDD2D1",
"B c #E1D5D4",
"V c #E3D9D6",
"C c #E8DAD7",
"Z c #E3D7D9",
"A c #E5DAD9",
"S c #E9DEDC",
"D c #EBE0DE",
"F c #EDE2E1",
"G c #F1E6E5",
"H c #F4E9E7",
"J c #F6EBE9",
"K c #F9EEEC",
/* pixels */
"9u99u,6rwqqtq6gfkdggdhqqqyqqqww08eu9u,qrqtqtq0kffffffgtqwtu0wqu5",
"cjjsgwznMNNNbbGSSAAANAnnNNMNNMNlcxjshrlmMMVmxbHDDDDAZAnnMMBMBMBv",
"u44472fglzbbvbNbbbnxnMllbbxbnnnzr84463dxgbxvlxNxbbbvbnfbmbbbbbnk",
"u49977fvblyfyfNMnMnnnMlvbNMMxnnl4449q6yzMlkkyfAMMMMbnMknnbnbbMMk",
"98u497gDZbMMktdyazzbnbhlhhlllfy69q9476lDMMbvgtyyflbbnndakvvvgdu2",
">>22w1<71<<<-%--::&133136-***%**,,,:3-160-51==3=<---13&$;;,04:&$",
"u990vnbnMMMbbbNbnp2,13386wwryrrwwwrqbnbbNNbvMbMvna133362,9tduuuu",
"uufuvBBMMMNNZNNMBf688633%wfyydpppaprbNNNMMNNNMNNNa3q8,,:&tpptdpu",
"#**@***:1111111-<=%####%o*%%%%%%$&%#:*>*11,61-6-:*%#%*#&@@$$&$$&",
"NNnhmmmcbMmbNNybVVNVDNNNNVNVVNVVBBbzmmmmmbNbNNybBVNNVNNNCBCBBBBB",
"NnxxVmcmmmNmMNyMmmmmnmNmNmnNnbmNmmbbmmmcNmNmnNymmmmmmmmmMcBMMcMM",
"8e8-333366360q50qe006e86880e8qq56q7>33443736q038q8080e0670900094",
"NDmeeryeey6dFVVNMNVNNNMkDVNDADAvmDneryiuwp7aDBNNNNNAVNmkSZVZCCCk",
"DNxrhyhhliedVnnbnbMnNmvynbbNbMMxNVleyhiigp9aVbnxnbbmnMbynnnnMMBk",
"NbhrheyiqeeixxmmmbnbbMbiMbMNbbNlbmhehyhh999pcxmnnnnbbbbybnMMnvBk",
"nml1333**hiiNNnmMmMNMNbymbxlxNbqhNh33>**:sruBmnmmNNNMNbyNbzkbnv0",
"xmh%%-%o%>-1ireeqqqtdq5-6<1110<<zNy%%=&.#-#3yyyeqqqrdq1-511-<6<=",
"8e016%-633336-<<11<1-1556q6505516e016=1066366*11-1-1-361660q0<q<",
"bMbmNymHDADDNlNmbNNNgHKFDDDDVxVblNnnNynDDNDDNhNmmnmNgGJHFDSFNbDv",
"bmbbb6lmxxbblildyeflqxlxxhlxddlylNbzn6vNvbbbxylfeehlqxjhxlhfdklq",
"bMMNN6lNbnbbxeq83338-31767131881xmbmN5fnNMnnx0q637e6*6333831660>",
"yqtyd-fNnMmNb8368ee8exxxhheaiidq0qryy-lNbbbNmq6qeqe7exxxahiilyiq",
"--1-61ylllllh6333>:>>77681<6115-->>%&%ylbblzf1111111183:11>3e21>",
"#%6qffyyqrqqr6e33ee7#%**#+#+%%+%#%6q00yqflyye0eqq878%%%%@@-*++@@",
"q6VKFHFJFFFSDDDDVVDV61qfffffy6qqe1DHGGGFFGFFDDDSAAVA510fffgdi6qq",
"b0yxvvlylllyfhaahfff6ybNmmMbmxfzb0ixxflffggffffdflgg1dbbmbmbmxfx",
"@#@@+-ytyyyyyiiyiyei6bmbMbmbmd+#@+%o#-dydyyydyidyyty6bmbbbmxnd+%",
"8q700tMvlyyghhlxbNVmdNmmMMmMVb5q0e060tblfydflllbnMVmfmmNmmmmVn10",
"1>>1<%-===%%%%*$-=*>1haadffhfq-1,>>31=%%-%%%%%%*=%->>hgddgdhdq<1",
"eeyrqryytyyqyyierrri8ieiyi8eyerrqyyytrttqyyqqiaieyieeieiyy8eyyyy",
"VVmmNNNNMZNvbbxjhhhjhhhhghdhVVVNABNNNNNNVNmxbbxhhhhxjhhhhhahVVVm",
"-1>1616-6-56664838838388881*5>>11,-61-63111568873886838q6q1-3111",
"<=;;@;@XOOXOo4suiyyyry0efyy----11&-=$&@XOOOOO0dtuppuuu0udpd::::<",
"Mvvvvu@;;;;>;sBmmNmmNDyzNNAhMNNMMvzzvuO;;;;;&fBMBcBBMBgkBBMkMnnn",
"MMvvMz&24447,smbmbnxbNq#---1MnbbnnnzMc$477995kBcMvcvvBtO:&&2Mnnn",
"vvcvzv,04u992smnmcNNmbyylfr0NbbMbnbbkk,474702sMcMcMMMctdggu0nvBk",
"MMZZMk47u0993rlkghkfq6-yyyt0NNNNNnNZng47w7q95dvksjkdt5<tdd77MMBn",
"ttt094&<;;<;%&-%&&%%=-=@#%=-yytyttu0u2;<::><$&=#;&#;#;;#%%@1futt",
"knM0dkggkkkklllkkbtfNMlNyNNzvzbbvnb7fkfkklzlkkllkktkMMvMdnnvbkbb",
"CMF0kBcczkgdddgznMdvFANNbNNNNANNBMSukMMkkkkffdkzvBdvCCMZkBBBBZZB",
"ttw:%1:%%%%%%@%%#&#200pp17w07q06qww-%=-%%5-%##%%=#=1000857tfqq6q",
"kkkxbbzbnbbnnnvykkggggzvlg<6ldl6kkvzxbxbxbbbnnzpzlllhhahfdqdzkv-",
"CZZMMZBMBMNBMZVpggkzxbnBVVkqnnnwnZZNNDNMNNNNVCBifhhhlbmmNSfwNzvq",
"ttq0wq0q70tq77,+@O&@@#&:--5+=&%&0q8qq06wq0tq94,O++%@@###:>1%-&*%",
"kbd===:===$o$;,;,>3>>224Nmnlzkbzlbd%&-<--=%o#*,;1,,3-333NbNbvvlv",
"nMf252570w92ssijhihhfgppCCNVnnZbnNf175660qq1rhshhaaahhyhDDNbNnMN",
"nBd%7fnbcng9ssiiiiirpsu9bhnMnbvMnBy=wdbbmbxqhheiiiiiaayexlmmbbNb",
"bndwnnnbbccuasihihaahf93nnnzbnnvbndwnMnnnbxerhhishhiyhr3mnbbbnzn",
"nBgnNnNNmNn0p99u94u79p;2ZMZMBNBMNVhbNmNNmBn5u99844r89t<5CMMMZMZM",
"37127767883#$@$X@@@@XOX&2252556066<16867777#@O&O$$##XX.&52555505",
":-=-wAVNNMadknvkvvvk9t9t0009w<;>>---ySVNNnddvbzzkvzzppuuu00up2=;",
"lzxgbGZANVfbCnbBcBcBdvMvMZMvMgdklzzkbGZZNVdbMnzBNmcBfkkkkkckkdgk",
"MnnMbMzbck0knMMcMkNNukbNMMMnBkgBNMMMnnlnbkqkbbmnmcnMudkvnCBkkkkB",
"bnnvvMnnkMkcnncvcnNkwBBnvMMBCkgnbMbbbNNnfnkbnbnxbbBkuMBBnvznCkgn",
"vMBMzNbbBCd40444567<2nNbccvknggNzMNnlNbxVAy,q843247:,vMvbnmnmgkm",
"d52,:2-114;@&@=#11425uwwuupup07uy631>3:11,-@$O&$,2554ptututuu70u",
"V9>q788704uu,u9,ppupppapdyidddxMNq1e707e8484e4e4ppuuprpyppyyhfhN",
"d8espuupduuuuuuu33342,220665150ir0raiiyyiiyhyyi454473333,26386qf",
"qqsafuuuuuuuuuu4e8ee9spghdiyiiyyrririqiiyhreeiee09888pradfgghrrq",
"BmBmCnvguskgsuuueeeepACBVVVVSVVMVNNVVhhajjmxhrheuuuuaDCDSBVNVVAV",
"lhfhku<%;&&;;,,;*,>*2hhhflxdgdgllkklh11-&33*;;;4&;;;3hisffhhlhgf",
"ddyhfdutuud9;$$Oe4eeeaeiiee8dddiyyfyfeyyppy8&;$O7u9u4ieiayrqyddd",
"nvllkdkkkkduuusgjjjjhaaghfffNMMbbvvklllfzxfwraugsjsjhhahhadgNNbb",
"--<<<::=<2;&449u4e433333111-01<<<-<<----<::*374uu4443333>3>:61>1"
};
