/* XPM */
static char *west__1_1684718993[] = {
/* columns rows colors chars-per-pixel */
"64 64 140 2 ",
"   c #2D2A26",
".  c #2D2D2B",
"X  c #312E27",
"o  c #322E2A",
"O  c #2C312C",
"+  c #34322D",
"@  c #39332D",
"#  c #3C382F",
"$  c #353532",
"%  c #3A3632",
"&  c #373933",
"*  c #3D3A35",
"=  c #343A39",
"-  c #3D3C39",
";  c #413B34",
":  c #433D3A",
">  c #483F39",
",  c #3F403A",
"<  c #444037",
"1  c #45423D",
"2  c #4A433C",
"3  c #50453F",
"4  c #50493F",
"5  c #3E4341",
"6  c #464441",
"7  c #4B4641",
"8  c #474944",
"9  c #4D4A44",
"0  c #4E4C48",
"q  c #514745",
"w  c #524B45",
"e  c #524E49",
"r  c #5A4F48",
"t  c #565247",
"y  c #585147",
"u  c #55524C",
"i  c #5B544D",
"p  c #555451",
"a  c #5B5551",
"s  c #5D5954",
"d  c #5E5C59",
"f  c #61574E",
"g  c #615751",
"h  c #625B54",
"j  c #635E59",
"k  c #666257",
"l  c #65625B",
"z  c #6B635C",
"x  c #6C685F",
"c  c #71675E",
"v  c #71685F",
"b  c #666461",
"n  c #6C6662",
"m  c #6E6964",
"M  c #736660",
"N  c #736B64",
"B  c #736E69",
"V  c #796F68",
"C  c #7D7067",
"Z  c #75716B",
"A  c #7C746D",
"S  c #7D796E",
"D  c #747470",
"F  c #7C7671",
"G  c #7D7973",
"H  c #7E7D7B",
"J  c #81796C",
"K  c #817771",
"L  c #837B74",
"P  c #897D76",
"I  c #837D79",
"U  c #897F79",
"Y  c #8A8177",
"T  c #87817B",
"R  c #8C837C",
"E  c #8F887E",
"W  c #92867D",
"Q  c #92887E",
"!  c #8D8681",
"~  c #8D8882",
"^  c #8E8A89",
"/  c #918781",
"(  c #938B83",
")  c #9A8D85",
"_  c #958E89",
"`  c #998F88",
"'  c #9C9085",
"]  c #95918B",
"[  c #9C938B",
"{  c #9C988F",
"}  c #979390",
"|  c #9C9592",
" . c #9F9891",
".. c #A08F85",
"X. c #A19386",
"o. c #A3968D",
"O. c #A8978D",
"+. c #A4998E",
"@. c #AA9B8D",
"#. c #A29791",
"$. c #A89790",
"%. c #A49B93",
"&. c #AB9D94",
"*. c #A99F99",
"=. c #B09F97",
"-. c #A7A096",
";. c #ADA196",
":. c #A5A199",
">. c #ADA39A",
",. c #B2A296",
"<. c #B3A59C",
"1. c #B8A79E",
"2. c #B5A99E",
"3. c #BAAA9E",
"4. c #AEA7A1",
"5. c #AFAAA0",
"6. c #B2A6A0",
"7. c #B8A7A0",
"8. c #B6AAA1",
"9. c #BBADA3",
"0. c #B7AEA9",
"q. c #BCAEA8",
"w. c #B7B1A5",
"e. c #BEB1A6",
"r. c #BEB2A9",
"t. c #BAB5B0",
"y. c #C0AEA4",
"u. c #C2AFA8",
"i. c #C1B2A6",
"p. c #C3B5AA",
"a. c #C8B7AC",
"s. c #C5B9AE",
"d. c #CABAAE",
"f. c #C3B6B1",
"g. c #C8B7B0",
"h. c #C6B9B1",
"j. c #CABBB2",
"k. c #CFC1B6",
"l. c #CDC2B9",
"z. c #D2C7C1",
/* pixels */
"W 8.>.<.7.<.2.2.<.<.>.;.<.2.8.<.>./ w 8.i.a.i.j.j.d.d.d.p.9.3.e.3.i.s.&.3.s.Y & S p.2.9.<.6.2.<.>.;.2.2.<.>.q.e.8.8.<.@.<.2.2.u ",
"C *.2.8.>.2.2.3.<.,.$.,.>.9.<.,.r.Z 2 r.p.i.p.s.j.a.8.i.p.e.e.e.i.3.3.;.3.p.E + m p.<.<.7.<.>.3.<.<.<.2.,.6.8.&.8.q.i.,.,.8.-.2 ",
"j o.8.8.q.p.,.7.q.8.>.6.%.<.>.7.{ i : 5.p.i.u.8.2.+.+.<.p.a.i.9.i.p.3.3.i.e.[ : l <.1.<.&.*.q.<.7.2.2.1.7.,.2.8.<.8.w.p.e.w.E # ",
"2 T { [ [ ( P ! F m l p 9 7 9 9 2 % 6 4.j.9.3.p.;.@.@.,.q.p.i.9.3.i.r.i.3.;.` 1 w ) 8.r.0.*.$.&.*.>.7.*.8.>.;.@.#.%.( ( / P w . ",
"% @ % % @ % : $ O : 9 h N Z Z Z w % % _ s.<.;.q.;.&.&.>.8.p.s.s.i.q.q.p.e.8.X.9 - u z c h t 2 4 w 7 u e 8 1 - ; * * # # : * X - ",
"_ T L A a % = $ a / $.p.s.g.p.q.2.L : L r.q.q.8.8.2.6.,.,.2.2.<.9.2.8.<.2.w.[ 7 . 9 T ) E ] ( R F 9 + @ & 0 a l N N G G S H R / ",
"t.j.s.s.8.! u $ j 7.3.i.3.y.s.u.e.;.7 N <.2.q.<.>.<.<.2.7.<.<.2.1.<.7.<.<.2._ 1 < #.k.d.s.h.p.k.l.&.j * H t.r.e.s.p.s.s.e.r.h.r.",
"9.y.3.i.9.q.N o z q.w.3.p.w.p.;.<.q.: s 8.<.<.<.2.<.<.2.>.#.*.>.1.9.2.,.2.2.` - A w.e.,.3.e.i.3.<.a.Y ; +.h.e.i.9.i.3.p.3.3.e.e.",
"p.9.8.i.d.d.S . C e.+.,.i.9.a.1.9.&.* j &.&.2.8.<.7.2.>.&.$.*.,.p.8.,.<.9.<.` > R p.9.3.3.e.p.3.3.s.S q [ e.y.i.i.e.9.e.i.e.e.9.",
"3.e.a.u.i.s.L . P r.2.r.j.e.r.e.a.Q # l %.2.2.&.<.,.<.7.,.*.2.p.9.7.;.&.*.9.#.7 P p.u.i.r.r.e.3.p.h.A w >.a.i.8.+.3.p.q.3.e.p.i.",
",.3.p.9.p.h.T o S 8.8.<.9.8.8.q.e.Q $ Z 8.<.) $.*.7.9.q.r.q.r.q.q.>.>.2.8.7.| 0 A r.3.q.r.2.$.u.3.8.z j s.e.u.8.3.p.p.e.p.s.i.;.",
"9.8.q.e.u.s.U + T q.>.&.<.8.2.,.8.E + G 8.=.@.,.<.q.p.8.1.8.7.&.<.<.8.8.*.#./ r m r.,.,.<.<.>.9.3.p.z A s.2.8.q.e.i.e.i.p.i.e.3.",
"e.8.3.2.7.q.T % R 2.@.;.q.3.3.2.9.( $ j &.8.1.>.q.3.,.,.<.,.1.3.8.<.2.;.2.2.o.i x <.&.2.,.2.3.&.&.r.x P r.2.2.<.<.7.8.q.8.2.8.p.",
";.2.2.<.=.9.R $ L 8.8.8.8.,.<.,.7.U . % K $.+.q.8.9.q.8.8.8.1.2.,.<.8.8.2.{ N % x r.7.7.2.8.8.8.8.:.s R 2.>.&.<.8.<.<.,.2.2.<.,.",
"2.8.8.8.2.9.T $ h o.<.>.>.>.>.5.8.n = $ : a m G F L P T / ] _ ! ( Q T Z g > : $ 9  .>. .#.{ T A s 0 % ( r.,.$.>.>.2.2.2.<.<.<.<.",
"2.>.&.>.,.9.T $ @ a j h s s 9 p r $ . = 6 2 0 8 0 1 & % $ % - 7 q 9 1 $ * = - = - * e s 0 - X + & + + ! 6.<.<.8.2.2.8.8.6.<.<.8.",
";.+.-.2.8.,.G - S T / [ ~ G V V z z V ) &.*.2.e.,.@.E 7 % 9 [ 2.8.<.;.;.;.<.&.h O a +.>.&.Q Q Q +.l . Z 0.<.8.1.=.8.;.2.8.>.2.2.",
"2.&.>.<.,.8.A 1 ,.i.d.d.a.i.3.y.w.r.q.<.9.s.p.e.d.e.e.G   I s.q.p.p.r.e.q.9.a.' $ R j.a.s.w.s.e.e.%.* 8 >.q.<.1.8.,.@.&.>.2.q.2.",
"2.<.2.,.<.<.h j s.2.&.2.i.p.y.e.w.p.e.<.3.p.p.i.,.e.j.( + ! f.i.p.s.i.p.<.,.e.2.0 R p.8.e.e.3.X.3.p.h o L $.8.6.7.,.<.2.<.<.<.;.",
"&.8.7.<.q.` : I q.<.$.*.8.w.8.r.3.3.3.p.p.9.3.<.<.<.w.%.; F p.@.<.q.p.k.s.i.e.3.t G a.3.3.p.3.3.i.8.N   9 S *.4.8.4.8.8.2.8.>.>.",
"n z n C L s : ^ <.u.p.y.8.3.<.<.e.2.8.q.<.9.q.2.<.8.<.{ , Z k.3.9.i.3.p.e.p.a.p.7 R j.,.,.p.3.p.a.8.R & @ $ 1 m U P R P P S n B ",
"&   > 2 ; X % e N V K P ( $.>.>.2.,.;.{ R / [ [ -.+.&.R # m r.8.i.p.i.s.p.i.e.2.8 ! a.,.y.p.s.i.w.s.] . e B a 1 7 w w 2 < ; o X ",
"O j *.8.;.[ P N p e 7 6 6 6 0 p i i 1 * : < > < 1 1 4 * @ B >.e.8.8.8.2.<.<.8.2.u / a.p.p.w.p.3.i.s.[ : ~ r.q.2.>.>.&.>.>.#.F : ",
"- { k.8.r.s.p.g.g.p.7.,.<.&.$.X._ ! u $ l T Z m l B B m @ H 8.2.8.<.2.<.>.&.8.>.0 R s.3.s.s.3.e.,.k.#.2 <.u.9.a.s.8.2.q.p.j.6.z ",
"q >.r.8.9.8.0.a.p.a.p.e.e.p.p.p.a.e.S q >.e.s.r.d.w.p.,.2 R q.>.<.>.8.6.>.8.2.8.s F s.y.u.i.i.8.e.j.&.y ;.q.8.3.w.e.9.i.e.2.e.J ",
"4 >.p.<.,.q.r.9.,.3.i.a.p.e.e.i.9.p.A k r.3.e.e.3.p.p.e.u m 8.2.@.<.,.,.9.,.@.e.s A a.p.9.q.e.i.e.d.o.t 2.<.3.2.,.3.3.3.<.=.9.L ",
"9 >.3.3.8.,.2.@.O.,.<.,.2.2.>.;.<.6.h V p.e.p.3.,.3.i.d.u 1 :.2.3.p.r.8.q.q.;.X.6 b p.8.<.9.q.8.2.s.( 9 :.4.2.2.2.q.q.q.9.8.p.W ",
"0 ;.q.<.9.9.9.<.<.q.r.r.8.8.>.8.r.%.* I s.,.&.p.i.r.e.s.d   : w a j m F m n l 6 o l r.<.;.2.>.&.;.2./ + D >.A u s k x z j j m u ",
", m +.{ #.*.#.%.#._ P G S V V F m e + _ g.8.i.s.p.<.3.q.u : q i j z s r 7 7 9 % . n 0.>.2.8.>.&.,.;.T < & 7 y k k j j k j p 9 + ",
"l w 3 3 : o - 7 @ % < 9 a h y < X $ % A r.i.p.8.i.&.9.u.6 n h.r.e.s.s.3.2.p.i.+.- n 8.>.8.8.2.2.<.e.R & + V h.h.s.u.q.p.g.u.<.[ ",
"r.8.&.&.%.d + $ z Y %.;.$.>.2.o.B 6 o s >.2.p.e.u.p.q.8.u m j.8.i.3.i.a.i.9.3.1.p z 3.;.8.w.<.<.8.,.>.7 1 <.a.w.u.i.a.9.<.2.q.s.",
"h.i.d.i.j.G . I <.<.w.p.e.r.p.8.t.F + q +.<.2.8.8.8.9.1.t a p.<.=.s.d.8.i.,.+.a.a h 8.&.&.f.2.<.,.2.8.s 9 8.i.3.,.9.p.i.8.r.r.e.",
"8.2.e.u.s.G + %.p.q.9.p.i.8.p.i.p.F $ - ' 9.&.<.2.2.<.5.w a h.3.9.s.i.e.e.e.p.p.l a 4.2.<.8.g.>.<.<.9.K q ;.p.,.&.e.s.i.9.p.p.2.",
"&.,.i.i.p.L & &.p.9.9.s.j.q.<.&.q.l . 0  .<.&.q.2.&.*.8.a u r.3.e.3.2.p.p.3.3.i.Z w 0.>.7.8.9.q.<.2.8.K u 2.8.1.8.9.8.q.p.p.q.,.",
"8.<.2.3.2.Z , ;.g.2.#.2.a.p.<.o.8.h . 9 *.<.2.q.3.3.&.0.n w <.3.;.8.q.,.&.>.2.8.L w <.<.1.+.,.8.2.<.8.F u ;.,.9.8.8.2.7.7.<.2.9.",
"<.2.,.,.8.F 2 >.p.9.,.8.p.p.q.e.9.h O s &.3.u.2.2.2.2.2.j 1 >.2.8.<.9.8.2.2.,.8.F 2 { >.<.@.9.p.,.<.8.z 2 $.8.r.3.>.&.<.8.6.,.>.",
"<.2.+.>.r.d 1 2.q.q.q.s.s.9.q.u.s.C . d 8.p.,.>.>.>.w.>.e % &.8.<.$.<.q.2.>.;.e.m * #.8.>.8.<.2.8.9.0.w % ` r.<.7.,.>.,.2.2.2.2.",
"2.8.>.8.6.0 & *.j.p.u.p.p.q.i.q.3.R . 8 _ ;.{ >.>.>.{ S 1 $ T r.2.8.p.e.q.p.e.$.0 $ U 4.>.8.<.;.>.#. .0 * A >.<.<.2.8.2.>.>.<.2.",
"f z k r 7 O . K u.9.8.1.+.$.q.e.r.( - $ @ 2 w - @ ; ; @ $ + 2 x L L L T / _ A 4 * $ & 0 0 7 w q q < 7 $ + 6 F ( / G l w 7 r i f ",
"P S S L b p @ b 9.<.2.,.+.&.8.<.3.( O 6 G { ] ~ G k N B m D s 2 * - - 6 9 e u $ $ * $ 6 j m A T T A l p 0 : 9 7 7 9 u d n B F G ",
"3.8.a.e.e.*.a d 8.>.2.8.<.>.7.>.2.( : [ j.d.p.g.j.d.p.9.e.p.s.p.<.;.2.;.;.8.[ h $ - x +.2.p.d.d.d.d.y.<.&.$.&.&.&.3.a.s.p.p.s.p.",
"X.3.2.p.p.r.z u 7.<.,.<.<.7.7.6.e.( 2 >.r.9.2.7.i.q.9.i.p.e.e.e.a.i.p.p.q.r.8.X.1 1 { r.e.i.;.;.<.e.d.d.s.j.d.p.e.<.,.3.s.a.<.@.",
"r.a.i.i.p.r.s s <.8.8.2.8.8.<.,.e.( : >.p.u.=.2.i.r.i.9.q.e.e.3.3.;.2.e.p.e.p.e.V 7 >.r.3.1.$.<.p.s.a.i.i.s.a.e.8.3.9.9.p.a.s.i.",
"p.q.u.3.q.8.i a ,.2.2.<.<.>.2.9.8.[ % ( 8.3.=.q.r.p.p.8.3.3.e.3.&.@.;.3.9.3.<.<.L < &.s.p.9.q.9.s.i.9.9.y.q.q.e.9.p.p.e.3.e.s.p.",
"7.2.2.2.>.6.z e 2.<.<.<.&.$.;.2.8./ % T q.2.2.,.,.<.7.q.2.;.;.2.8.3.8.8.8.2.2.8.F ; o.<.2.<.7.6.<.<.8.2.;.@.&.;.<.,.<.8.8.2.>.<.",
"*.=.2.<.>.>.9 b 8.>.<.2.&.;.2.<.2.R - Z >.;.<.q.&.>.<.8.8.2.2.8.8.8.2.<.,.;.<.8.A @ / *.<.2.<.8.,.6.2.>.;.&.<.2.8.8.q.r.p.e.e.e.",
"$.,.8.2.e.#.: D <.2.8.2.>.8.8.2.;.F $ 6 ~ >.2.8.9.i.e.8.w.8.>.:.>.>.>.8.8.q.q.2.b $ U >.r.u.8.8.9.7.2.2.8.8.2.2.2.8.2.;.<.q.q.;.",
"8.8.) ' R h % 6 N E [ [ Q L c i w 1 & + - N P R Q Y P L A k u 2 7 u h l N F A c - $ p z j v K V V V V K R W ) *.&.<.<.<.;.>.<.<.",
"8 1 - & + . = = p t 1 , - @ $ $ * : ; : % - & : - % % = O 8 a 0 u 6 : * $ X o @ , 9 u u 0 9 9 9 : : % $ $ = = * 8 p a e p e 0 w ",
"z B L P m 1 + l q.8.@.) Q Q ( _ ( ' { [ { #.$.*.-.{ N $ e 8.h.2.8.8.2.%.[ #.#.[ >.-.;.2.w.8.8.<.*.` K b 6 + 0 n M V S V V V N j ",
"e.e.s.r.>.L + N a.i.p.p.i.p.a.p.p.9.i.<.7.i.a.i.s.j.` > z a.e.i.i.p.i.p.q.8.9.p.r.p.3.e.p.p.9.&.e.9.) ( t 9 2.a.q.p.p.s.s.u.q.p.",
"a.u.8.r.i.;.2 x h.2.e.i.e.i.e.i.p.i.a.1.3.i.9.i.9.a.9.2 L d.1.<.i.u.y.i.y.=.&.8.y.i.y.a.s.9.3.<.u.i.8.$.1 N h.u.2.1.q.a.q.<.<.q.",
"<.&.,.r.q.r.j z s.;.,.2.3.e.w.r.u.3.p.p.q.i.<.1.e.y.r.u F q.+.+.1.8.9.7.8.q.9.p.w.p.e.p.a.r.p.p.8.9.q.{ ; ! p.&.X.>.q.e.i.p.p.r.",
">.;.2.i.q.r.Z d 8.<.2.1.2.2.=.@.8.2.8.9.<.2.$.=.2.3.8.s n 6.>.2.7.9.7.,.<.8.3.<.<.3.>.$.;.q.q.,.3.q.<.[ e  .8.<.8.8.2.<.<.8.8.>.",
">.2.<.<.<.q.m p 8.q.8.8.8.8.q.1.8.2.<.7.2.8.8.8.2.p.,.u 0 %.r.e.9.<.<.6.2.<.2.<.8.&.+.*.<.<.8.8.2.<.9.#.j %.>.9.r.<.,.>.;.,.>.<.",
"q.2.<.,.&.T # < k N V A J C P R W / ( ) +.X.#.) Q X.R < + z ' >.<.&.&.7.2.<.2.2.<.3.2.3.1.<.2.2.8.9.&.W : L p.9.r.e.p.8.2.2.e.8.",
"Z l s u 1 +   & % % * : 1 * - % $ $ 5 = % : 6 6 7 1 % $ $ X & 8 0 d d s d j m H / %.#.o.[ / ( ` ! F d 6 & - s m S I / ` P P P F ",
". * 7 u w l G ] [ [ %.*.#.%.{ A 7 % . 8 U ` ` %.{ [ T T P N k u g e 0 a i 2   - 6 7 > ; 2 2 w q * @ + @ % % $ X . X . . $ $ $ o ",
"9 ( <.8.8.8.e.p.s.i.8.i.p.a.p.<.! 6 @ T r.p.h.p.s.p.u.i.s.s.a.3.<.>.*.6.>.) q o o 8 N T :.>.4.4.&.[ W U R { :.;.[ ~ A j 9 $ . 5 ",
"A h.s.8.r.p.9.a.1.=.@.,.i.3.3.a.q.g % :.h.9.q.9.u.u.p.p.9.9.p.p.u.p.p.r.p.9.V % 9 *.z.s.r.p.p.r.p.p.s.r.8.r.p.s.j.j.r.8.#.F 6 $ ",
"[ s.9.u.p.y.3.3.8.,.3.i.e.p.p.i.r.A : 5.e.y.i.i.3.9.a.a.e.3.e.e.y.i.p.3.9.q.) 1 h e.e.y.3.i.i.i.e.e.p.e.9.i.i.3.3.y.i.d.s.q.F o ",
"` s.2.1.e.a.a.i.p.p.r.p.8.p.2.;.s.W 4 8.w.e.3.8.p.q.i.p.e.e.2.2.3.9.s.a.i.p.$.1 h l.i.9.i.y.3.<.r.e.e.i.i.3.e.3.,.3.i.d.e.p._ $ ",
") h.8.&.2.r.e.e.r.p.8.8.e.e.+.&.8.[ q ;.s.1.X.2.e.p.a.e.i.e.;.&.,.3.r.3.i.s. .: C h.2.p.p.3.<.<.s.p.i.i.y.i.e.i.a.8.9.i.e.r.-.9 ",
") ,.2.3.<.8.8.<.<.<.<.2.,.e.2.,.1.) g >.9.3.<.q.i.a.d.e.e.p.3.p.r.r.i.9.a.s.! : A s.q.8.w.e.r.r.q.8.3.9.y.i.i.9.q.u.a.y.u.9.6.7 "
};
